<mxfile host="65bd71144e">
    <diagram id="paoIxnPiQzLhIwpn3jBk" name="Page-1">
        <mxGraphModel dx="820" dy="261" grid="1" gridSize="10" guides="1" tooltips="1" connect="1" arrows="1" fold="1" page="1" pageScale="1" pageWidth="850" pageHeight="1100" math="0" shadow="0">
            <root>
                <mxCell id="0"/>
                <mxCell id="1" parent="0"/>
                <mxCell id="2" value=":Halaman data kriteria" style="rounded=0;whiteSpace=wrap;html=1;fillColor=none;strokeWidth=3;fontSize=13;fontStyle=1;fontColor=#000000;" vertex="1" parent="1">
                    <mxGeometry x="125" y="20" width="210" height="60" as="geometry"/>
                </mxCell>
                <mxCell id="3" value="&lt;span&gt;:Form edit data kriteria&lt;/span&gt;" style="rounded=0;whiteSpace=wrap;html=1;fillColor=none;strokeWidth=3;fontSize=13;fontStyle=1;fontColor=#000000;" vertex="1" parent="1">
                    <mxGeometry x="405" y="20" width="200" height="60" as="geometry"/>
                </mxCell>
                <mxCell id="4" value="" style="endArrow=classic;html=1;entryX=0;entryY=0.75;entryDx=0;entryDy=0;exitX=1.258;exitY=0.282;exitDx=0;exitDy=0;exitPerimeter=0;strokeWidth=3;fontSize=13;fontStyle=1;fontColor=#000000;" edge="1" parent="1" source="11" target="13">
                    <mxGeometry width="50" height="50" relative="1" as="geometry">
                        <mxPoint x="405" y="310" as="sourcePoint"/>
                        <mxPoint x="455" y="260" as="targetPoint"/>
                    </mxGeometry>
                </mxCell>
                <mxCell id="5" value="" style="endArrow=classic;html=1;exitX=1.1;exitY=0.043;exitDx=0;exitDy=0;exitPerimeter=0;strokeWidth=3;fontSize=13;fontStyle=1;fontColor=#000000;" edge="1" parent="1" source="11">
                    <mxGeometry width="50" height="50" relative="1" as="geometry">
                        <mxPoint x="405" y="310" as="sourcePoint"/>
                        <mxPoint x="235" y="142" as="targetPoint"/>
                    </mxGeometry>
                </mxCell>
                <mxCell id="6" value="" style="endArrow=classic;html=1;entryX=1.153;entryY=0.156;entryDx=0;entryDy=0;entryPerimeter=0;dashed=1;exitX=0.326;exitY=0.406;exitDx=0;exitDy=0;exitPerimeter=0;strokeWidth=3;fontSize=13;fontStyle=1;fontColor=#000000;" edge="1" parent="1" source="13" target="11">
                    <mxGeometry width="50" height="50" relative="1" as="geometry">
                        <mxPoint x="235" y="180" as="sourcePoint"/>
                        <mxPoint x="245" y="152" as="targetPoint"/>
                    </mxGeometry>
                </mxCell>
                <mxCell id="7" value="Mengakses halaman data kriteria" style="text;html=1;align=center;verticalAlign=middle;whiteSpace=wrap;rounded=0;strokeWidth=3;fontSize=13;fontStyle=1;fontColor=#000000;" vertex="1" parent="1">
                    <mxGeometry x="75" y="110" width="130" height="30" as="geometry"/>
                </mxCell>
                <mxCell id="8" value="Menampilkan Halaman&amp;nbsp;&lt;div&gt;data kriteria&lt;/div&gt;" style="text;html=1;align=center;verticalAlign=middle;resizable=0;points=[];autosize=1;strokeColor=none;fillColor=none;strokeWidth=3;fontSize=13;fontStyle=1;fontColor=#000000;" vertex="1" parent="1">
                    <mxGeometry x="60" y="160" width="160" height="40" as="geometry"/>
                </mxCell>
                <mxCell id="9" value="Akses()" style="text;html=1;align=center;verticalAlign=middle;resizable=0;points=[];autosize=1;strokeColor=none;fillColor=none;strokeWidth=3;fontSize=13;fontStyle=1;fontColor=#000000;" vertex="1" parent="1">
                    <mxGeometry x="250" y="118" width="70" height="30" as="geometry"/>
                </mxCell>
                <mxCell id="10" value="" style="endArrow=none;dashed=1;html=1;dashPattern=1 3;strokeWidth=3;fontSize=13;fontStyle=1;fontColor=#000000;" edge="1" parent="1">
                    <mxGeometry width="50" height="50" relative="1" as="geometry">
                        <mxPoint x="41" y="650" as="sourcePoint"/>
                        <mxPoint x="40" y="90" as="targetPoint"/>
                    </mxGeometry>
                </mxCell>
                <mxCell id="11" value="" style="rounded=0;whiteSpace=wrap;html=1;fillColor=default;strokeWidth=3;fontSize=13;fontStyle=1;fontColor=#000000;" vertex="1" parent="1">
                    <mxGeometry x="35" y="120" width="10" height="510" as="geometry"/>
                </mxCell>
                <mxCell id="12" value="" style="endArrow=none;dashed=1;html=1;dashPattern=1 3;strokeWidth=3;fontSize=13;fontStyle=1;fontColor=#000000;" edge="1" parent="1" source="15">
                    <mxGeometry width="50" height="50" relative="1" as="geometry">
                        <mxPoint x="242.58" y="656" as="sourcePoint"/>
                        <mxPoint x="245" y="90" as="targetPoint"/>
                    </mxGeometry>
                </mxCell>
                <mxCell id="13" value="" style="rounded=0;whiteSpace=wrap;html=1;fillColor=default;strokeWidth=3;fontSize=13;fontStyle=1;fontColor=#000000;" vertex="1" parent="1">
                    <mxGeometry x="240" y="126" width="10" height="184" as="geometry"/>
                </mxCell>
                <mxCell id="14" value="" style="endArrow=none;dashed=1;html=1;dashPattern=1 3;strokeWidth=3;fontSize=13;fontStyle=1;fontColor=#000000;" edge="1" parent="1" target="15">
                    <mxGeometry width="50" height="50" relative="1" as="geometry">
                        <mxPoint x="242.58" y="656" as="sourcePoint"/>
                        <mxPoint x="242.58" y="106" as="targetPoint"/>
                    </mxGeometry>
                </mxCell>
                <mxCell id="15" value="" style="rounded=0;whiteSpace=wrap;html=1;fillColor=default;strokeWidth=3;fontSize=13;fontStyle=1;fontColor=#000000;" vertex="1" parent="1">
                    <mxGeometry x="245" y="490" width="10" height="140" as="geometry"/>
                </mxCell>
                <mxCell id="16" value="" style="endArrow=classic;html=1;exitX=1.168;exitY=0.938;exitDx=0;exitDy=0;exitPerimeter=0;strokeWidth=3;fontSize=13;fontStyle=1;fontColor=#000000;" edge="1" parent="1" source="13">
                    <mxGeometry width="50" height="50" relative="1" as="geometry">
                        <mxPoint x="248" y="381" as="sourcePoint"/>
                        <mxPoint x="475" y="300" as="targetPoint"/>
                    </mxGeometry>
                </mxCell>
                <mxCell id="17" value="" style="endArrow=classic;html=1;entryX=1;entryY=0.5;entryDx=0;entryDy=0;dashed=1;exitX=0.289;exitY=0.301;exitDx=0;exitDy=0;exitPerimeter=0;strokeWidth=3;fontSize=13;fontStyle=1;fontColor=#000000;" edge="1" parent="1">
                    <mxGeometry width="50" height="50" relative="1" as="geometry">
                        <mxPoint x="723.8899999999999" y="600.538" as="sourcePoint"/>
                        <mxPoint x="255" y="600" as="targetPoint"/>
                    </mxGeometry>
                </mxCell>
                <mxCell id="18" value="" style="edgeStyle=elbowEdgeStyle;elbow=horizontal;endArrow=classic;html=1;curved=0;rounded=0;endSize=8;startSize=8;strokeWidth=3;fontSize=13;fontStyle=1;fontColor=#000000;exitX=0.086;exitY=1.133;exitDx=0;exitDy=0;exitPerimeter=0;entryX=1;entryY=0.645;entryDx=0;entryDy=0;entryPerimeter=0;" edge="1" parent="1" target="29" source="37">
                    <mxGeometry width="50" height="50" relative="1" as="geometry">
                        <mxPoint x="735" y="600" as="sourcePoint"/>
                        <mxPoint x="760" y="650" as="targetPoint"/>
                        <Array as="points">
                            <mxPoint x="769" y="590"/>
                        </Array>
                    </mxGeometry>
                </mxCell>
                <mxCell id="19" value="" style="endArrow=none;dashed=1;html=1;dashPattern=1 3;strokeWidth=3;fontSize=13;fontStyle=1;fontColor=#000000;" edge="1" parent="1">
                    <mxGeometry width="50" height="50" relative="1" as="geometry">
                        <mxPoint x="725" y="520" as="sourcePoint"/>
                        <mxPoint x="725" y="110" as="targetPoint"/>
                    </mxGeometry>
                </mxCell>
                <mxCell id="20" value="Menampilkan halaman&amp;nbsp;&lt;div&gt;edit kriteria()&lt;/div&gt;" style="text;html=1;align=center;verticalAlign=middle;resizable=0;points=[];autosize=1;strokeColor=none;fillColor=none;strokeWidth=3;fontSize=13;fontStyle=1;fontColor=#000000;" vertex="1" parent="1">
                    <mxGeometry x="280" y="255" width="160" height="40" as="geometry"/>
                </mxCell>
                <mxCell id="21" value="Menampilkan halaman edit kriteria()" style="text;html=1;align=center;verticalAlign=middle;resizable=0;points=[];autosize=1;strokeColor=none;fillColor=none;strokeWidth=3;fontSize=13;fontStyle=1;fontColor=#000000;" vertex="1" parent="1">
                    <mxGeometry x="135" y="317" width="230" height="30" as="geometry"/>
                </mxCell>
                <mxCell id="22" value="&lt;div&gt;&lt;span&gt;Isi data kriteria()&lt;/span&gt;&lt;/div&gt;" style="text;html=1;align=center;verticalAlign=middle;resizable=0;points=[];autosize=1;strokeColor=none;fillColor=none;strokeWidth=3;fontSize=13;fontStyle=1;fontColor=#000000;" vertex="1" parent="1">
                    <mxGeometry x="183" y="370" width="120" height="30" as="geometry"/>
                </mxCell>
                <mxCell id="23" value="" style="endArrow=classic;html=1;entryX=1.032;entryY=0.965;entryDx=0;entryDy=0;entryPerimeter=0;dashed=1;exitX=0.453;exitY=0.866;exitDx=0;exitDy=0;exitPerimeter=0;strokeWidth=3;fontSize=13;fontStyle=1;fontColor=#000000;" edge="1" parent="1" source="15" target="11">
                    <mxGeometry width="50" height="50" relative="1" as="geometry">
                        <mxPoint x="235" y="540" as="sourcePoint"/>
                        <mxPoint x="45" y="540" as="targetPoint"/>
                    </mxGeometry>
                </mxCell>
                <mxCell id="24" value="&lt;div&gt;&lt;div&gt;Menampilkan halaman&amp;nbsp;&lt;/div&gt;&lt;div&gt;data kriteria()&lt;/div&gt;&lt;/div&gt;" style="text;html=1;align=center;verticalAlign=middle;resizable=0;points=[];autosize=1;strokeColor=none;fillColor=none;strokeWidth=3;fontSize=13;fontStyle=1;fontColor=#000000;" vertex="1" parent="1">
                    <mxGeometry x="60" y="570" width="160" height="40" as="geometry"/>
                </mxCell>
                <mxCell id="25" value="&lt;span&gt;:kriteria&lt;/span&gt;" style="rounded=0;whiteSpace=wrap;html=1;fillColor=none;strokeWidth=3;fontSize=13;fontStyle=1;fontColor=#000000;" vertex="1" parent="1">
                    <mxGeometry x="645" y="20" width="173" height="60" as="geometry"/>
                </mxCell>
                <mxCell id="26" value="" style="edgeStyle=elbowEdgeStyle;elbow=horizontal;endArrow=classic;html=1;curved=0;rounded=0;endSize=8;startSize=8;entryX=1.3;entryY=0.391;entryDx=0;entryDy=0;strokeWidth=3;fontSize=13;fontStyle=1;fontColor=#000000;entryPerimeter=0;exitX=0.114;exitY=0.867;exitDx=0;exitDy=0;exitPerimeter=0;" edge="1" parent="1" source="9" target="13">
                    <mxGeometry width="50" height="50" relative="1" as="geometry">
                        <mxPoint x="247" y="200" as="sourcePoint"/>
                        <mxPoint x="247" y="140" as="targetPoint"/>
                        <Array as="points">
                            <mxPoint x="317" y="150"/>
                        </Array>
                    </mxGeometry>
                </mxCell>
                <mxCell id="27" value="Double Klik Data Kriteria" style="text;html=1;align=center;verticalAlign=middle;resizable=0;points=[];autosize=1;strokeColor=none;fillColor=none;strokeWidth=3;fontSize=13;fontStyle=1;fontColor=#000000;" vertex="1" parent="1">
                    <mxGeometry x="55" y="228" width="170" height="30" as="geometry"/>
                </mxCell>
                <mxCell id="28" value="" style="endArrow=none;dashed=1;html=1;dashPattern=1 3;strokeWidth=3;fontSize=13;fontStyle=1;fontColor=#000000;" edge="1" parent="1" target="29">
                    <mxGeometry width="50" height="50" relative="1" as="geometry">
                        <mxPoint x="725" y="660" as="sourcePoint"/>
                        <mxPoint x="729.58" y="150" as="targetPoint"/>
                    </mxGeometry>
                </mxCell>
                <mxCell id="29" value="" style="rounded=0;whiteSpace=wrap;html=1;fillColor=default;strokeWidth=3;fontSize=13;fontStyle=1;fontColor=#000000;" vertex="1" parent="1">
                    <mxGeometry x="721" y="510" width="10" height="138" as="geometry"/>
                </mxCell>
                <mxCell id="30" value="" style="endArrow=classic;html=1;entryX=1.153;entryY=0.156;entryDx=0;entryDy=0;entryPerimeter=0;dashed=1;strokeWidth=3;fontSize=13;fontStyle=1;fontColor=#000000;" edge="1" parent="1">
                    <mxGeometry width="50" height="50" relative="1" as="geometry">
                        <mxPoint x="475" y="343" as="sourcePoint"/>
                        <mxPoint x="43" y="343" as="targetPoint"/>
                    </mxGeometry>
                </mxCell>
                <mxCell id="31" value="" style="endArrow=classic;html=1;exitX=1.258;exitY=0.282;exitDx=0;exitDy=0;exitPerimeter=0;strokeWidth=3;fontSize=13;fontStyle=1;fontColor=#000000;" edge="1" parent="1">
                    <mxGeometry width="50" height="50" relative="1" as="geometry">
                        <mxPoint x="45" y="400" as="sourcePoint"/>
                        <mxPoint x="475" y="400" as="targetPoint"/>
                    </mxGeometry>
                </mxCell>
                <mxCell id="32" value="" style="endArrow=classic;html=1;exitX=1.258;exitY=0.282;exitDx=0;exitDy=0;exitPerimeter=0;strokeWidth=3;fontSize=13;fontStyle=1;fontColor=#000000;" edge="1" parent="1">
                    <mxGeometry width="50" height="50" relative="1" as="geometry">
                        <mxPoint x="45" y="460" as="sourcePoint"/>
                        <mxPoint x="475" y="460" as="targetPoint"/>
                    </mxGeometry>
                </mxCell>
                <mxCell id="33" value="&lt;div&gt;&lt;span&gt;Klik button simpan()&lt;/span&gt;&lt;/div&gt;" style="text;html=1;align=center;verticalAlign=middle;resizable=0;points=[];autosize=1;strokeColor=none;fillColor=none;strokeWidth=3;fontSize=13;fontStyle=1;fontColor=#000000;" vertex="1" parent="1">
                    <mxGeometry x="180" y="430" width="140" height="30" as="geometry"/>
                </mxCell>
                <mxCell id="34" value="" style="endArrow=none;dashed=1;html=1;dashPattern=1 3;strokeWidth=3;fontSize=13;fontStyle=1;fontColor=#000000;" edge="1" parent="1">
                    <mxGeometry width="50" height="50" relative="1" as="geometry">
                        <mxPoint x="483" y="660" as="sourcePoint"/>
                        <mxPoint x="483.47" y="95" as="targetPoint"/>
                    </mxGeometry>
                </mxCell>
                <mxCell id="35" value="" style="endArrow=classic;html=1;exitX=0.6;exitY=0.963;exitDx=0;exitDy=0;exitPerimeter=0;strokeWidth=3;fontSize=13;fontStyle=1;fontColor=#000000;" edge="1" parent="1" source="40">
                    <mxGeometry width="50" height="50" relative="1" as="geometry">
                        <mxPoint x="525" y="530" as="sourcePoint"/>
                        <mxPoint x="725" y="530" as="targetPoint"/>
                    </mxGeometry>
                </mxCell>
                <mxCell id="36" value="&lt;span&gt;Menyimpan kedatabase()&lt;/span&gt;" style="text;html=1;align=center;verticalAlign=middle;resizable=0;points=[];autosize=1;strokeColor=none;fillColor=none;strokeWidth=3;fontSize=13;fontStyle=1;fontColor=#000000;" vertex="1" parent="1">
                    <mxGeometry x="510" y="505" width="170" height="30" as="geometry"/>
                </mxCell>
                <mxCell id="37" value="&lt;span&gt;simpan()&lt;/span&gt;" style="text;html=1;align=center;verticalAlign=middle;resizable=0;points=[];autosize=1;strokeColor=none;fillColor=none;strokeWidth=3;fontSize=13;fontStyle=1;fontColor=#000000;" vertex="1" parent="1">
                    <mxGeometry x="731" y="498" width="70" height="30" as="geometry"/>
                </mxCell>
                <mxCell id="38" value="&lt;span&gt;Simpan data berhasil()&lt;/span&gt;" style="text;html=1;align=center;verticalAlign=middle;resizable=0;points=[];autosize=1;strokeColor=none;fillColor=none;strokeWidth=3;fontSize=13;fontStyle=1;fontColor=#000000;" vertex="1" parent="1">
                    <mxGeometry x="395" y="570" width="150" height="30" as="geometry"/>
                </mxCell>
                <mxCell id="39" value="" style="shape=actor;whiteSpace=wrap;html=1;fillColor=none;strokeWidth=3;fontStyle=1;fontColor=#000000;" vertex="1" parent="1">
                    <mxGeometry x="20" y="10" width="40" height="60" as="geometry"/>
                </mxCell>
                <mxCell id="40" value="" style="rounded=0;whiteSpace=wrap;html=1;fillColor=default;strokeWidth=3;fontSize=13;fontStyle=1;fontColor=#000000;" vertex="1" parent="1">
                    <mxGeometry x="479" y="270" width="10" height="270" as="geometry"/>
                </mxCell>
                <mxCell id="43" value="USER" style="text;html=1;align=center;verticalAlign=middle;resizable=0;points=[];autosize=1;strokeColor=none;fillColor=none;fontStyle=1;fontColor=#000000;" vertex="1" parent="1">
                    <mxGeometry x="10" y="68" width="60" height="30" as="geometry"/>
                </mxCell>
                <mxCell id="44" value="" style="edgeStyle=elbowEdgeStyle;elbow=horizontal;endArrow=classic;html=1;curved=0;rounded=0;endSize=8;startSize=8;strokeWidth=3;fontSize=13;fontStyle=1;exitX=1;exitY=0.115;exitDx=0;exitDy=0;exitPerimeter=0;fontColor=#000000;" edge="1" parent="1" source="40">
                    <mxGeometry width="50" height="50" relative="1" as="geometry">
                        <mxPoint x="489" y="362" as="sourcePoint"/>
                        <mxPoint x="493" y="340" as="targetPoint"/>
                        <Array as="points">
                            <mxPoint x="559" y="312"/>
                        </Array>
                    </mxGeometry>
                </mxCell>
                <mxCell id="45" value="Akses()" style="text;html=1;align=center;verticalAlign=middle;resizable=0;points=[];autosize=1;strokeColor=none;fillColor=none;fontStyle=1;fontColor=#000000;" vertex="1" parent="1">
                    <mxGeometry x="510" y="280" width="60" height="30" as="geometry"/>
                </mxCell>
            </root>
        </mxGraphModel>
    </diagram>
</mxfile>